<svg width="14" height="10" viewBox="0 0 14 10" fill="none" xmlns="http://www.w3.org/2000/svg">
  <path d="M8.47566 9.10395C8.37908 9.01165 8.32972 8.89562 8.32759 8.75588C8.32545 8.61615 8.37267 8.49799 8.46926 8.40141L11.3706 5.5001H1.09619C0.954314 5.5001 0.835514 5.45223 0.739791 5.35651C0.644058 5.26079 0.596191 5.14199 0.596191 5.00011C0.596191 4.85823 0.644058 4.73943 0.739791 4.64371C0.835514 4.54799 0.954314 4.50013 1.09619 4.50013H11.3706L8.46926 1.59881C8.37695 1.50651 8.32972 1.38942 8.32759 1.24755C8.32545 1.10567 8.37267 0.98858 8.46926 0.89628C8.56156 0.803969 8.67865 0.757812 8.82052 0.757812C8.9624 0.757812 9.07949 0.803969 9.17179 0.89628L12.8538 4.57833C12.9162 4.64072 12.9592 4.70653 12.9827 4.77576C13.0062 4.84499 13.0179 4.91977 13.0179 5.00011C13.0179 5.08046 13.0062 5.15631 12.9827 5.22768C12.9592 5.29905 12.9162 5.36592 12.8538 5.42831L9.17179 9.10395C9.07949 9.19626 8.96454 9.24241 8.82694 9.24241C8.68933 9.24241 8.57224 9.19626 8.47566 9.10395Z" fill="#00263E"/>
</svg>
