<svg xmlns="http://www.w3.org/2000/svg" width="18" height="18" viewBox="0 0 18 18">
  <path fill="#00263E" d="M1.27501,5.99996 C1.06251,5.99996 0.88439,5.92805 0.74064,5.78424 C0.59689,5.64044 0.52501,5.46224 0.52501,5.24964 C0.52501,5.03705 0.59689,4.85897 0.74064,4.71539 C0.88439,4.57179 1.06251,4.49999 1.27501,4.49999 L3.47121,4.49999 L0.64809,1.67689 C0.50964,1.53844 0.4388,1.3644 0.43559,1.15479 C0.43239,0.94517 0.50322,0.76793 0.64809,0.62306 C0.79295,0.4782 0.96859,0.40576 1.17501,0.40576 C1.38141,0.40576 1.55704,0.4782 1.70191,0.62306 L4.52501,3.44619 L4.52501,1.24999 C4.52501,1.03749 4.59692,0.85936 4.74074,0.71561 C4.88455,0.57186 5.06275,0.49999 5.27534,0.49999 C5.48794,0.49999 5.66603,0.57186 5.80961,0.71561 C5.9532,0.85936 6.02499,1.03749 6.02499,1.24999 L6.02499,5.09611 C6.02499,5.35221 5.93837,5.56688 5.76514,5.74011 C5.5919,5.91335 5.37724,5.99996 5.12114,5.99996 L1.27501,5.99996 Z M16.775,5.99996 L12.9288,5.99996 C12.6727,5.99996 12.4581,5.91335 12.2848,5.74011 C12.1116,5.56688 12.025,5.35221 12.025,5.09611 L12.025,1.24999 C12.025,1.03749 12.0969,0.85936 12.2407,0.71561 C12.3845,0.57186 12.5627,0.49999 12.7753,0.49999 C12.9879,0.49999 13.166,0.57186 13.3096,0.71561 C13.4532,0.85936 13.525,1.03749 13.525,1.24999 L13.525,3.44619 L16.3481,0.62306 C16.4865,0.48461 16.6605,0.41378 16.8702,0.41056 C17.0798,0.40736 17.257,0.4782 17.4019,0.62306 C17.5468,0.76793 17.6192,0.94357 17.6192,1.14999 C17.6192,1.35639 17.5468,1.53202 17.4019,1.67689 L14.5788,4.49999 L16.775,4.49999 C16.9875,4.49999 17.1656,4.5719 17.3093,4.71571 C17.4531,4.85953 17.525,5.03773 17.525,5.25031 C17.525,5.46291 17.4531,5.641 17.3093,5.78459 C17.1656,5.92817 16.9875,5.99996 16.775,5.99996 Z M0.64809,17.3769 C0.50322,17.232 0.43079,17.0564 0.43079,16.8499 C0.43079,16.6435 0.50322,16.4679 0.64809,16.323 L3.47121,13.4999 L1.27501,13.4999 C1.06251,13.4999 0.88439,13.428 0.74064,13.2842 C0.59689,13.1404 0.52501,12.9622 0.52501,12.7496 C0.52501,12.537 0.59689,12.3589 0.74064,12.2153 C0.88439,12.0718 1.06251,12 1.27501,12 L5.12114,12 C5.37724,12 5.5919,12.0866 5.76514,12.2598 C5.93837,12.433 6.02499,12.6477 6.02499,12.9038 L6.02499,16.7499 C6.02499,16.9624 5.95308,17.1406 5.80926,17.2843 C5.66546,17.4281 5.48726,17.4999 5.27466,17.4999 C5.06208,17.4999 4.88399,17.4281 4.74041,17.2843 C4.59681,17.1406 4.52501,16.9624 4.52501,16.7499 L4.52501,14.5537 L1.70191,17.3769 C1.56346,17.5153 1.38943,17.5861 1.17981,17.5894 C0.97019,17.5926 0.79295,17.5217 0.64809,17.3769 Z M12.7746,17.4999 C12.562,17.4999 12.3839,17.4281 12.2404,17.2843 C12.0968,17.1406 12.025,16.9624 12.025,16.7499 L12.025,12.9038 C12.025,12.6477 12.1116,12.433 12.2848,12.2598 C12.4581,12.0866 12.6727,12 12.9288,12 L16.775,12 C16.9875,12 17.1656,12.0719 17.3093,12.2157 C17.4531,12.3595 17.525,12.5377 17.525,12.7503 C17.525,12.9629 17.4531,13.141 17.3093,13.2845 C17.1656,13.4281 16.9875,13.4999 16.775,13.4999 L14.5788,13.4999 L17.4019,16.323 C17.5403,16.4615 17.6112,16.6355 17.6144,16.8451 C17.6176,17.0548 17.5468,17.232 17.4019,17.3769 C17.257,17.5217 17.0814,17.5942 16.875,17.5942 C16.6686,17.5942 16.4929,17.5217 16.3481,17.3769 L13.525,14.5537 L13.525,16.7499 C13.525,16.9624 13.4531,17.1406 13.3092,17.2843 C13.1654,17.4281 12.9872,17.4999 12.7746,17.4999 Z"/>
</svg>
