<svg xmlns="http://www.w3.org/2000/svg" width="18" height="18" viewBox="0 0 18 18">
  <path fill="#00263E" d="M1.24965,5.99998 C1.03707,5.99998 0.85898,5.9281 0.7154,5.78435 C0.5718,5.6406 0.5,5.46248 0.5,5.25 L0.5,1.40385 C0.5,1.14777 0.58662,0.93311 0.75987,0.75988 C0.93311,0.58663 1.14777,0.5 1.40385,0.5 L5.25,0.5 C5.46248,0.5 5.6406,0.57191 5.78435,0.71573 C5.9281,0.85954 5.99998,1.03774 5.99998,1.25033 C5.99998,1.46293 5.9281,1.64102 5.78435,1.7846 C5.6406,1.92818 5.46248,1.99998 5.25,1.99998 L3.0538,1.99998 L5.9019,4.84808 C6.04037,4.98386 6.1096,5.15049 6.1096,5.34798 C6.1096,5.54548 6.03134,5.72248 5.87483,5.879 C5.73134,6.02247 5.5564,6.0942 5.35,6.0942 C5.14358,6.0942 4.96794,6.02177 4.82308,5.8769 L1.99997,3.0538 L1.99997,5.25 C1.99997,5.46248 1.92807,5.6406 1.78425,5.78435 C1.64045,5.9281 1.46225,5.99998 1.24965,5.99998 Z M12.121,5.87483 C11.9775,5.73134 11.9058,5.5564 11.9058,5.35 C11.9058,5.14358 11.9782,4.96794 12.123,4.82308 L14.9461,1.99998 L12.75,1.99998 C12.5375,1.99998 12.3594,1.92807 12.2156,1.78425 C12.0719,1.64045 12,1.46225 12,1.24965 C12,1.03707 12.0719,0.85898 12.2156,0.7154 C12.3594,0.5718 12.5375,0.5 12.75,0.5 L16.5961,0.5 C16.8522,0.5 17.0668,0.58663 17.2401,0.75988 C17.4133,0.93311 17.5,1.14777 17.5,1.40385 L17.5,5.25 C17.5,5.46248 17.428,5.6406 17.2842,5.78435 C17.1404,5.9281 16.9622,5.99998 16.7496,5.99998 C16.537,5.99998 16.3589,5.9281 16.2154,5.78435 C16.0718,5.6406 16,5.46248 16,5.25 L16,3.0538 L13.1519,5.9019 C13.0161,6.04037 12.8495,6.1096 12.652,6.1096 C12.4545,6.1096 12.2775,6.03134 12.121,5.87483 Z M12.75,17.5 C12.5375,17.5 12.3594,17.428 12.2156,17.2842 C12.0719,17.1404 12,16.9622 12,16.7496 C12,16.537 12.0719,16.3589 12.2156,16.2154 C12.3594,16.0718 12.5375,16 12.75,16 L14.9461,16 L12.0981,13.1519 C11.9596,13.0161 11.8904,12.8495 11.8904,12.652 C11.8904,12.4545 11.9686,12.2775 12.1251,12.121 C12.2686,11.9775 12.4436,11.9058 12.65,11.9058 C12.8564,11.9058 13.032,11.9782 13.1769,12.1231 L16,14.9462 L16,12.75 C16,12.5375 16.0719,12.3594 16.2157,12.2156 C16.3595,12.0719 16.5377,12 16.7503,12 C16.9629,12 17.141,12.0719 17.2845,12.2156 C17.4282,12.3594 17.5,12.5375 17.5,12.75 L17.5,16.5961 C17.5,16.8522 17.4133,17.0668 17.2401,17.2401 C17.0668,17.4133 16.8522,17.5 16.5961,17.5 L12.75,17.5 Z M1.40385,17.5 C1.14777,17.5 0.93311,17.4133 0.75987,17.2401 C0.58662,17.0668 0.5,16.8522 0.5,16.5961 L0.5,12.75 C0.5,12.5375 0.57191,12.3594 0.71572,12.2156 C0.85954,12.0719 1.03774,12 1.25033,12 C1.46293,12 1.64102,12.0719 1.7846,12.2156 C1.92818,12.3594 1.99997,12.5375 1.99997,12.75 L1.99997,14.9462 L4.84808,12.0981 C4.98386,11.9596 5.15049,11.8904 5.34798,11.8904 C5.54548,11.8904 5.72248,11.9686 5.879,12.1251 C6.02247,12.2686 6.0942,12.4436 6.0942,12.65 C6.0942,12.8564 6.02177,13.032 5.8769,13.1769 L3.0538,16 L5.25,16 C5.46248,16 5.6406,16.0719 5.78435,16.2157 C5.9281,16.3595 5.99998,16.5377 5.99998,16.7503 C5.99998,16.9629 5.9281,17.141 5.78435,17.2846 C5.6406,17.4282 5.46248,17.5 5.25,17.5 L1.40385,17.5 Z"/>
</svg>
