<svg xmlns="http://www.w3.org/2000/svg" width="20" height="20" viewBox="0 0 20 20">
  <path fill="#00263E" d="M10.0003,14.75 C10.2129,14.75 10.391,14.6781 10.5346,14.5343 C10.6782,14.3906 10.75,14.2125 10.75,14 L10.75,9.75 C10.75,9.5375 10.6781,9.3594 10.5343,9.2156 C10.3904,9.0719 10.2122,9 9.9997,9 C9.7871,9 9.609,9.0719 9.4654,9.2156 C9.3218,9.3594 9.25,9.5375 9.25,9.75 L9.25,14 C9.25,14.2125 9.3219,14.3906 9.4657,14.5343 C9.6095,14.6781 9.7877,14.75 10.0003,14.75 Z M10,7.28845 C10.2288,7.28845 10.4207,7.21105 10.5755,7.05625 C10.7303,6.90145 10.8077,6.70963 10.8077,6.48078 C10.8077,6.25194 10.7303,6.06012 10.5755,5.9053 C10.4207,5.7505 10.2288,5.6731 10,5.6731 C9.7711,5.6731 9.5793,5.7505 9.4245,5.9053 C9.2697,6.06012 9.1923,6.25194 9.1923,6.48078 C9.1923,6.70963 9.2697,6.90145 9.4245,7.05625 C9.5793,7.21105 9.7711,7.28845 10,7.28845 Z M10.0016,19.5 C8.6877,19.5 7.45268,19.2506 6.29655,18.752 C5.1404,18.2533 4.13472,17.5765 3.2795,16.7217 C2.42427,15.8669 1.74721,14.8616 1.24833,13.706 C0.74944,12.5504 0.5,11.3156 0.5,10.0017 C0.5,8.6877 0.74933,7.45268 1.248,6.29655 C1.74667,5.1404 2.42342,4.13472 3.27825,3.2795 C4.1331,2.42427 5.13834,1.74721 6.29398,1.24833 C7.44959,0.74944 8.6844,0.5 9.9983,0.5 C11.3122,0.5 12.5473,0.74933 13.7034,1.248 C14.8596,1.74667 15.8652,2.42342 16.7205,3.27825 C17.5757,4.1331 18.2527,5.13834 18.7516,6.29398 C19.2505,7.44959 19.5,8.6844 19.5,9.9983 C19.5,11.3122 19.2506,12.5473 18.752,13.7034 C18.2533,14.8596 17.5765,15.8652 16.7217,16.7205 C15.8669,17.5757 14.8616,18.2527 13.706,18.7516 C12.5504,19.2505 11.3156,19.5 10.0016,19.5 Z M10,18 C12.2333,18 14.125,17.225 15.675,15.675 C17.225,14.125 18,12.2333 18,10 C18,7.76664 17.225,5.87498 15.675,4.32498 C14.125,2.77498 12.2333,1.99998 10,1.99998 C7.76664,1.99998 5.87498,2.77498 4.32498,4.32498 C2.77498,5.87498 1.99998,7.76664 1.99998,10 C1.99998,12.2333 2.77498,14.125 4.32498,15.675 C5.87498,17.225 7.76664,18 10,18 Z"/>
</svg>
