<svg width="25" height="24" viewBox="0 0 25 24" fill="none" xmlns="http://www.w3.org/2000/svg">
  <path d="M12.5 0C5.883 0 0.5 5.383 0.5 12C0.5 18.617 5.883 24 12.5 24C19.117 24 24.5 18.617 24.5 12C24.5 5.383 19.117 0 12.5 0ZM9.357 18C8.634 18 7.908 17.739 7.357 17.187L6.835 16.587C6.389 16.141 6.389 15.417 6.835 14.971L8.137 13.971C8.583 13.525 9.307 13.525 9.753 13.971L10.822 14.822C12.893 14.031 14.421 12.566 15.322 10.322L14.471 9.253C14.025 8.807 14.025 8.083 14.471 7.637L15.471 6.335C15.917 5.889 16.641 5.889 17.087 6.335L17.687 6.857C18.239 7.408 18.5 8.134 18.5 8.857C18.5 12.857 13.071 18 9.357 18Z" fill="white"/>
</svg>
