<svg xmlns="http://www.w3.org/2000/svg" width="24" height="22" viewBox="0 0 24 22">
  <path fill="#00263E" d="M15.0385,21.0597 C15.8052,21.0597 16.4846,20.8436 17.0769,20.4116 C17.6693,19.9795 18.1032,19.4071 18.3789,18.6943 C18.6135,19.0378 18.9221,19.3023 19.3048,19.4875 C19.6875,19.6728 20.0859,19.7654 20.5,19.7654 C21.2731,19.7654 21.9247,19.4978 22.4548,18.9625 C22.9849,18.4273 23.25,17.7782 23.25,17.0154 C23.25,16.35 23.0263,15.7475 22.5789,15.2077 C22.1314,14.668 21.5654,14.3757 20.8808,14.3308 C21.1654,14.0103 21.3878,13.6481 21.5481,13.2443 C21.7083,12.8404 21.7885,12.4174 21.7885,11.9751 C21.7885,11.3661 21.6353,10.794 21.3289,10.2587 C21.0225,9.7235 20.593,9.2853 20.0404,8.94431 C19.9763,9.1674 19.8895,9.4065 19.7799,9.6616 C19.6702,9.9167 19.5494,10.1404 19.4174,10.3327 C19.6892,10.5417 19.8981,10.7914 20.0443,11.0818 C20.1904,11.3722 20.2635,11.6783 20.2635,12.0001 C20.2635,12.9847 19.8802,13.6061 19.1135,13.8645 C18.3469,14.1228 17.5898,14.3251 16.8424,14.4712 L16.4924,15.0693 C16.6757,15.6026 16.8292,16.0552 16.953,16.427 C17.0767,16.7988 17.1385,17.1379 17.1385,17.44431 C17.1385,18.0084 16.9353,18.5004 16.5289,18.9203 C16.1225,19.3401 15.6289,19.5501 15.0481,19.5501 C14.4571,19.5501 13.9597,19.3363 13.5558,18.9087 C13.152,18.4812 12.8128,17.9536 12.5385,17.326 C12.2641,16.6985 12.042,16.0334 11.8721,15.3308 C11.7023,14.6283 11.5641,14.002 11.4577,13.452 C11.4141,13.2392 11.3045,13.0687 11.1289,12.9405 C10.9532,12.8123 10.7641,12.7802 10.5616,12.8443 C10.3488,12.9084 10.1891,13.0376 10.0827,13.2318 C9.97633,13.426 9.95005,13.6327 10.0039,13.852 C10.1475,14.5738 10.3279,15.3552 10.5452,16.1962 C10.7626,17.0372 11.0574,17.818 11.4298,18.5385 C11.8023,19.259 12.2799,19.8593 12.8625,20.3395 C13.4452,20.8196 14.1705,21.0597 15.0385,21.0597 Z M20.5,18.2654 C20.1526,18.2654 19.8574,18.144 19.6144,17.901 C19.3715,17.6581 19.25,17.3629 19.25,17.0154 C19.25,16.668 19.3715,16.3728 19.6144,16.1298 C19.8574,15.8869 20.1526,15.7654 20.5,15.7654 C20.8475,15.7654 21.1426,15.8869 21.3856,16.1298 C21.6285,16.3728 21.75,16.668 21.75,17.0154 C21.75,17.3629 21.6285,17.6581 21.3856,17.901 C21.1426,18.144 20.8475,18.2654 20.5,18.2654 Z M13.3962,13.6674 C13.5616,13.8327 13.7584,13.9045 13.9866,13.8828 C14.2148,13.861 14.4167,13.7674 14.5924,13.602 C15.8436,12.4674 16.8494,11.4395 17.6097,10.5183 C18.3699,9.5972 18.75,8.59943 18.75,7.52508 C18.75,6.51227 18.4032,5.65907 17.7097,4.96548 C17.0161,4.27188 16.1629,3.92508 15.1501,3.92508 C15.0257,3.92508 14.9145,3.93246 14.8164,3.94721 C14.7183,3.96196 14.6199,3.97895 14.5212,3.99818 C14.5943,3.83791 14.6507,3.67606 14.6904,3.51261 C14.7302,3.34914 14.75,3.17574 14.75,2.99241 C14.75,2.22959 14.4824,1.58056 13.9472,1.04531 C13.4119,0.51006 12.7629,0.24243 12.0001,0.24243 C11.2372,0.24243 10.5882,0.51006 10.053,1.04531 C9.5177,1.58056 9.25007,2.22959 9.25007,2.99241 C9.25007,3.17574 9.26994,3.34657 9.30968,3.50491 C9.34943,3.66324 9.40584,3.82253 9.47893,3.98278 C9.38019,3.96355 9.28179,3.94912 9.18372,3.93951 C9.08564,3.92989 8.97442,3.92508 8.85005,3.92508 C7.97185,3.92508 7.21641,4.19303 6.58372,4.72893 C5.95104,5.26482 5.5488,5.93724 5.377,6.74621 C5.60648,6.70902 5.86385,6.69043 6.1491,6.69043 C6.43435,6.69043 6.69684,6.7039 6.93657,6.73083 C7.08529,6.3475 7.32824,6.03403 7.66543,5.79043 C8.00261,5.54685 8.39748,5.42506 8.85005,5.42506 C9.45262,5.42506 9.92762,5.59108 10.2751,5.92313 C10.6225,6.25518 11.0859,6.75582 11.6655,7.42506 L12.3597,7.42506 C12.9558,6.72891 13.4276,6.22153 13.7751,5.90293 C14.1225,5.58435 14.5808,5.42506 15.1501,5.42506 C15.7539,5.42506 16.2549,5.6241 16.653,6.02218 C17.051,6.42027 17.2501,6.92123 17.2501,7.52508 C17.2501,8.24432 16.9193,8.99752 16.2578,9.7847 C15.5962,10.5719 14.6879,11.493 13.5328,12.5482 C13.3571,12.7033 13.2517,12.8898 13.2164,13.1078 C13.1812,13.3257 13.2411,13.5122 13.3962,13.6674 Z M12.0001,4.24243 C11.6526,4.24243 11.3574,4.12096 11.1144,3.87801 C10.8715,3.63504 10.75,3.33984 10.75,2.99241 C10.75,2.64497 10.8715,2.34977 11.1144,2.10681 C11.3574,1.86386 11.6526,1.74238 12.0001,1.74238 C12.3475,1.74238 12.6427,1.86386 12.8857,2.10681 C13.1286,2.34977 13.2501,2.64497 13.2501,2.99241 C13.2501,3.33984 13.1286,3.63504 12.8857,3.87801 C12.6427,4.12096 12.3475,4.24243 12.0001,4.24243 Z M9.00583,21.0693 C9.30839,21.0693 9.60679,21.0321 9.90102,20.9577 C10.1952,20.8834 10.4802,20.7635 10.7558,20.5981 C10.6173,20.4225 10.4789,20.2148 10.3404,19.9751 C10.202,19.7353 10.077,19.5142 9.96545,19.3116 C9.80135,19.4026 9.63564,19.4667 9.46833,19.5039 C9.30103,19.5411 9.13532,19.5597 8.97122,19.5597 C8.38019,19.5597 7.87987,19.3497 7.47025,18.9299 C7.06063,18.51 6.85583,18.0097 6.85583,17.4289 C6.85583,17.1122 6.91768,16.7722 7.0414,16.4087 C7.16512,16.0452 7.31864,15.5968 7.50198,15.0635 L7.14237,14.4655 C6.37826,14.3193 5.61703,14.1154 4.8587,13.8539 C4.10037,13.5924 3.7212,12.9693 3.7212,11.9847 C3.7212,11.2475 3.98627,10.7064 4.5164,10.3616 C5.04653,10.0167 5.63531,9.8443 6.28275,9.8443 C6.87892,9.8443 7.56834,9.9427 8.35103,10.1395 C9.13373,10.3363 10.0264,10.5962 11.0289,10.9193 C11.2481,10.9834 11.459,10.9741 11.6616,10.8914 C11.8642,10.8087 11.9975,10.6577 12.0616,10.4385 C12.1257,10.2257 12.093637,10.0238 11.9654,9.8328 C11.8372,9.6417 11.6667,9.5142 11.4539,9.4501 C10.4231,9.1231 9.49077,8.85392 8.6568,8.64238 C7.82282,8.43083 7.04557,8.32506 6.32508,8.32506 C5.24559,8.32506 4.29175,8.64429 3.46355,9.2828 C2.63535,9.9212 2.22125,10.8218 2.22125,11.9847 C2.22125,12.427 2.29978,12.8452 2.45683,13.2395 C2.61387,13.6337 2.83471,13.9975 3.11933,14.3308 C2.43471,14.3821 1.86868,14.6744 1.42125,15.2077 C0.973818,15.7411 0.750101,16.3436 0.750101,17.0154 C0.750101,17.7718 1.01517,18.4193 1.5453,18.9577 C2.07542,19.4962 2.72701,19.7654 3.50007,19.7654 C3.91419,19.7654 4.31259,19.6728 4.69528,19.4875 C5.07796,19.3023 5.38661,19.0378 5.62123,18.6943 C5.89686,19.4071 6.33403,19.9811 6.93275,20.4164 C7.53147,20.8516 8.22249,21.0693 9.00583,21.0693 Z M3.47507,18.2654 C3.12764,18.2654 2.83662,18.144 2.602,17.901 C2.36738,17.6581 2.25007,17.3629 2.25007,17.0154 C2.25007,16.668 2.37155,16.3686 2.6145,16.1173 C2.85745,15.866 3.15264,15.7404 3.50007,15.7404 C3.84752,15.7404 4.14272,15.8619 4.38568,16.1048 C4.62863,16.3478 4.7501,16.643 4.7501,16.9904 C4.7501,17.3379 4.62446,17.6372 4.37317,17.8885 C4.12189,18.1398 3.82253,18.2654 3.47507,18.2654 Z"/>
</svg>
