<svg width="25" height="24" viewBox="0 0 25 24" fill="none" xmlns="http://www.w3.org/2000/svg">
  <path d="M12.5 2.162C15.704 2.162 16.084 2.174 17.349 2.232C18.657 2.292 20.004 2.59 20.957 3.543C21.919 4.505 22.208 5.839 22.268 7.151C22.326 8.416 22.338 8.796 22.338 12C22.338 15.204 22.326 15.584 22.268 16.849C22.209 18.15 21.904 19.51 20.957 20.457C19.995 21.419 18.662 21.708 17.349 21.768C16.084 21.826 15.704 21.838 12.5 21.838C9.296 21.838 8.916 21.826 7.651 21.768C6.36 21.709 4.982 21.397 4.043 20.457C3.086 19.5 2.792 18.153 2.732 16.849C2.674 15.584 2.662 15.204 2.662 12C2.662 8.796 2.674 8.416 2.732 7.151C2.791 5.855 3.099 4.487 4.043 3.543C5.003 2.583 6.342 2.292 7.651 2.232C8.916 2.174 9.296 2.162 12.5 2.162ZM12.5 0C9.241 0 8.832 0.014 7.552 0.072C5.697 0.157 3.855 0.673 2.514 2.014C1.168 3.36 0.657 5.198 0.572 7.052C0.514 8.332 0.5 8.741 0.5 12C0.5 15.259 0.514 15.668 0.572 16.948C0.657 18.801 1.175 20.648 2.514 21.986C3.859 23.331 5.7 23.843 7.552 23.928C8.832 23.986 9.241 24 12.5 24C15.759 24 16.168 23.986 17.448 23.928C19.302 23.843 21.146 23.326 22.486 21.986C23.833 20.639 24.343 18.802 24.428 16.948C24.486 15.668 24.5 15.259 24.5 12C24.5 8.741 24.486 8.332 24.428 7.052C24.343 5.197 23.826 3.354 22.486 2.014C21.143 0.671 19.297 0.156 17.448 0.072C16.168 0.014 15.759 0 12.5 0Z" fill="white"/>
  <path d="M12.5 5.83789C9.09701 5.83789 6.33801 8.59689 6.33801 11.9999C6.33801 15.4029 9.09701 18.1619 12.5 18.1619C15.903 18.1619 18.662 15.4029 18.662 11.9999C18.662 8.59689 15.903 5.83789 12.5 5.83789ZM12.5 15.9999C10.291 15.9999 8.50001 14.2089 8.50001 11.9999C8.50001 9.79089 10.291 7.99989 12.5 7.99989C14.709 7.99989 16.5 9.79089 16.5 11.9999C16.5 14.2089 14.709 15.9999 12.5 15.9999Z" fill="white"/>
  <path d="M18.9068 7.0343C19.7021 7.0343 20.3468 6.38959 20.3468 5.5943C20.3468 4.79901 19.7021 4.1543 18.9068 4.1543C18.1115 4.1543 17.4668 4.79901 17.4668 5.5943C17.4668 6.38959 18.1115 7.0343 18.9068 7.0343Z" fill="white"/>
</svg>
