<svg xmlns="http://www.w3.org/2000/svg" width="18" height="19" viewBox="0 0 18 19">
  <path fill="#00263E" d="M8.9984,19 C8.7692,19 8.5449,18.96 8.3253,18.8801 C8.1057,18.8001 7.8993,18.6891 7.7061,18.547 L0.33977,12.7996 C0.11104,12.6253 -0.0022,12.3966 -2.29993031e-06,12.1133 C0.00227,11.8301 0.119,11.5983 0.35023,11.418 C0.50919,11.2978 0.68479,11.2377 0.87703,11.2377 C1.06926,11.2377 1.2467,11.2971 1.40937,11.4158 L8.7757,17.1451 C8.843,17.1977 8.9178,17.224 8.9999977,17.224 C9.0822,17.224 9.157,17.1977 9.2243,17.1451 L16.5906,11.4158 C16.7533,11.2971 16.9307,11.2377 17.123,11.2377 C17.3152,11.2377 17.4908,11.2978 17.6498,11.418 C17.881,11.5983 17.9977,11.8301 18.0000315,12.1133 C18.0022,12.3966 17.889,12.6253 17.6602,12.7996 L10.2939,18.547 C10.1,18.6891 9.8929,18.8001 9.6726,18.8801 C9.4522,18.96 9.2275,19 8.9984,19 Z M8.9993,13.8026 C8.7696,13.8026 8.5449,13.7626 8.3253,13.6827 C8.1057,13.6028 7.8993,13.4917 7.7061,13.3496 L0.53217,7.74438 C0.39045,7.63761 0.28447,7.5098 0.21421,7.36096 C0.14393,7.21211 0.1088,7.05889 0.1088,6.90129 C0.1088,6.74241 0.14393,6.58792 0.21421,6.43785 C0.28447,6.28779 0.38986,6.1598 0.53039,6.05387 L7.701,0.45445 C7.8958,0.31224 8.1036,0.20095 8.3246,0.12057 C8.5455,0.04019 8.7709,0 9.0007,0 C9.2304,0 9.4551,0.03997 9.6747,0.1199 C9.8943,0.19985 10.1006,0.31089 10.2939,0.45301 L17.4679,6.05823 C17.6096,6.165 17.7155,6.29281 17.7858,6.44166 C17.8561,6.59048 17.8912,6.7437 17.8912,6.90129 C17.8912,7.0602 17.8561,7.21469 17.7858,7.36477 C17.7155,7.51482 17.6101,7.64282 17.4696,7.74875 L10.299,13.3481 C10.1042,13.4903 9.8964,13.6016 9.6754,13.682 C9.4545,13.7624 9.2291,13.8026 8.9993,13.8026 Z M8.7757,11.9477 C8.843,12.0003 8.9178,12.0266 9,12.0266 C9.0822,12.0266 9.157,12.0003 9.2243,11.9477 L15.7049,6.90129 L9.2243,1.85489 C9.157,1.80231 9.0822,1.77601 9,1.77601 C8.9178,1.77601 8.843,1.80231 8.7757,1.85489 L2.29511,6.90129 L8.7757,11.9477 Z"/>
</svg>
