<svg width="25" height="24" viewBox="0 0 25 24" fill="none" xmlns="http://www.w3.org/2000/svg">
  <path d="M20.9496 20.4498H17.3933V14.8806C17.3933 13.5524 17.3697 11.8435 15.5436 11.8435C13.6915 11.8435 13.4077 13.2899 13.4077 14.7848V20.4498H9.85259V8.99676H13.267V10.5614H13.3143C14.0109 9.37167 15.3047 8.66088 16.6825 8.71174C20.2873 8.71174 20.9508 11.083 20.9508 14.1662L20.9496 20.4498ZM5.83977 7.4309C4.69968 7.4309 3.77601 6.50723 3.77601 5.36714C3.77601 4.22704 4.69968 3.30337 5.83977 3.30337C6.97987 3.30337 7.90354 4.22704 7.90354 5.36714C7.90354 6.50723 6.97987 7.4309 5.83977 7.4309ZM7.61733 20.4498H4.05748V8.99676H7.61733V20.4498ZM22.7224 0.00134422H2.27046C1.30422 -0.00929985 0.511827 0.765352 0.5 1.7316V22.2675C0.511827 23.235 1.30422 24.0096 2.27046 23.999H22.7224C23.6911 24.0108 24.487 23.2362 24.5 22.2675V1.73041C24.4858 0.761803 23.6899 -0.0128479 22.7224 0.000161489" fill="white"/>
</svg>
