<svg xmlns="http://www.w3.org/2000/svg" width="18" height="10" viewBox="0 0 18 10">
  <path fill="#00263E" d="M4.86535,1.74997 C4.65285,1.74997 4.47473,1.67807 4.331,1.53427 C4.18725,1.39045 4.11538,1.21225 4.11538,0.99967 C4.11538,0.78707 4.18725,0.60898 4.331,0.4654 C4.47473,0.32181 4.65285,0.25002 4.86535,0.25002 L17,0.25002 C17.2125,0.25002 17.3906,0.32192 17.5344,0.46572 C17.6781,0.60954 17.75,0.78774 17.75,1.00032 C17.75,1.21292 17.6781,1.39101 17.5344,1.53459 C17.3906,1.67818 17.2125,1.74997 17,1.74997 L4.86535,1.74997 Z M4.86535,5.75 C4.65285,5.75 4.47473,5.6781 4.331,5.5343 C4.18725,5.3905 4.11538,5.2123 4.11538,4.9997 C4.11538,4.7871 4.18725,4.609 4.331,4.4654 C4.47473,4.3218 4.65285,4.25 4.86535,4.25 L17,4.25 C17.2125,4.25 17.3906,4.3219 17.5344,4.4657 C17.6781,4.6095 17.75,4.7877 17.75,5.0003 C17.75,5.2129 17.6781,5.391 17.5344,5.5346 C17.3906,5.6782 17.2125,5.75 17,5.75 L4.86535,5.75 Z M4.86535,9.75 C4.65285,9.75 4.47473,9.6781 4.331,9.5343 C4.18725,9.3905 4.11538,9.2123 4.11538,8.9997 C4.11538,8.7871 4.18725,8.609 4.331,8.4654 C4.47473,8.3218 4.65285,8.25 4.86535,8.25 L17,8.25 C17.2125,8.25 17.3906,8.3219 17.5344,8.4657 C17.6781,8.6095 17.75,8.7877 17.75,9.0003 C17.75,9.2129 17.6781,9.391 17.5344,9.5346 C17.3906,9.6782 17.2125,9.75 17,9.75 L4.86535,9.75 Z M1.07927,1.8269 C0.84564,1.8269 0.64902,1.74788 0.48942,1.58985 C0.32981,1.43181 0.25,1.23598 0.25,1.00235 C0.25,0.76873 0.32902,0.57211 0.48705,0.4125 C0.64508,0.2529 0.84092,0.1731 1.07455,0.1731 C1.30817,0.1731 1.50478,0.25211 1.6644,0.41015 C1.82402,0.56818 1.90383,0.76401 1.90383,0.99765 C1.90383,1.23126 1.8248,1.42788 1.66675,1.5875 C1.50872,1.7471 1.31289,1.8269 1.07927,1.8269 Z M1.07927,5.8269 C0.84564,5.8269 0.64902,5.7479 0.48942,5.5898 C0.32981,5.4318 0.25,5.236 0.25,5.0023 C0.25,4.7687 0.32902,4.5721 0.48705,4.4125 C0.64508,4.2529 0.84092,4.1731 1.07455,4.1731 C1.30817,4.1731 1.50478,4.2521 1.6644,4.4101 C1.82402,4.5682 1.90383,4.764 1.90383,4.9976 C1.90383,5.2313 1.8248,5.4279 1.66675,5.5875 C1.50872,5.7471 1.31289,5.8269 1.07927,5.8269 Z M1.07927,9.8269 C0.84564,9.8269 0.64902,9.7479 0.48942,9.5898 C0.32981,9.4318 0.25,9.236 0.25,9.0023 C0.25,8.7687 0.32902,8.5721 0.48705,8.4125 C0.64508,8.2529 0.84092,8.1731 1.07455,8.1731 C1.30817,8.1731 1.50478,8.2521 1.6644,8.4101 C1.82402,8.5682 1.90383,8.764 1.90383,8.9976 C1.90383,9.2313 1.8248,9.4279 1.66675,9.5875 C1.50872,9.7471 1.31289,9.8269 1.07927,9.8269 Z"/>
</svg>
