<svg xmlns="http://www.w3.org/2000/svg" width="16" height="20" viewBox="0 0 16 20">
  <path fill="#00263E" d="M8,12.75 C7.1564,12.75 6.3901,12.5496 5.701,12.149 C5.0119,11.7484 4.4571,11.2179 4.0366,10.5577 C4.58787,10.132 5.19972,9.8077 5.87215,9.5846 C6.5446,9.3615 7.2539,9.25 8,9.25 C8.7462,9.25 9.4555,9.3615 10.1279,9.5846 C10.8003,9.8077 11.4122,10.132 11.9634,10.5577 C11.5429,11.2179 10.9881,11.7484 10.299,12.149 C9.6099,12.5496 8.8436,12.75 8,12.75 Z M8,7.74995 C7.5141,7.74995 7.101,7.57976 6.7606,7.23938 C6.4202,6.89901 6.25,6.48588 6.25,5.99998 C6.25,5.51408 6.4202,5.10094 6.7606,4.76058 C7.101,4.42019 7.5141,4.25 8,4.25 C8.4859,4.25 8.8991,4.42019 9.2394,4.76058 C9.5798,5.10094 9.75,5.51408 9.75,5.99998 C9.75,6.48588 9.5798,6.89901 9.2394,7.23938 C8.8991,7.57976 8.4859,7.74995 8,7.74995 Z M8,17.8019 C5.94104,15.9609 4.38462,14.2042 3.33077,12.5317 C2.27692,10.8593 1.75,9.4154 1.75,8.2 C1.75,6.30638 2.35321,4.75798 3.55962,3.55478 C4.76604,2.35156 6.2462,1.74995 8,1.74995 C9.7539,1.74995 11.234,2.35156 12.4404,3.55478 C13.6468,4.75798 14.2501,6.30638 14.2501,8.2 C14.2501,9.4154 13.7231,10.8593 12.6693,12.5317 C11.6154,14.2042 10.059,15.9609 8,17.8019 Z M8,19.4615 C8.1205,19.4615 8.2378,19.4413 8.3519,19.4009 C8.466,19.3605 8.5699,19.3019 8.6635,19.225 C11.0455,17.0814 12.8221,15.092 13.9933,13.2567 C15.1644,11.4215 15.75,9.7359 15.75,8.2 C15.75,5.77691 14.9699,3.84614 13.4096,2.40768 C11.8494,0.96923 10.0462,0.25 8,0.25 C5.95387,0.25 4.15067,0.96923 2.59042,2.40768 C1.03017,3.84614 0.25005,5.77691 0.25005,8.2 C0.25005,9.7359 0.83562,11.4215 2.00677,13.2567 C3.17792,15.092 4.95452,17.0814 7.3366,19.225 C7.4238,19.3019 7.526,19.3605 7.6433,19.4009 C7.7606,19.4413 7.8795,19.4615 8,19.4615 Z"/>
</svg>
