<svg xmlns="http://www.w3.org/2000/svg" width="18" height="18" viewBox="0 0 18 18">
  <path fill="#00263E" d="M11.4173,17.2558 L5.99998,15.3616 L1.69615,17.0269 C1.40128,17.141 1.12821,17.1084 0.87692,16.9289 C0.62564,16.7494 0.5,16.5039 0.5,16.1923 L0.5,3.07702 C0.5,2.87959 0.55289,2.70235 0.65868,2.5453 C0.76444,2.38825 0.91283,2.27447 1.10385,2.20395 L5.40768,0.74435 C5.60511,0.68408 5.80254,0.65139 5.99998,0.64627 C6.19741,0.64114 6.39484,0.67383 6.59228,0.74435 L12,2.63857 L16.3038,0.9732 C16.5987,0.8591 16.8717,0.88698 17.123,1.05685 C17.3743,1.22672 17.5,1.46422 17.5,1.76935 L17.5,14.9616 C17.5,15.1654 17.4423,15.3443 17.3269,15.4981 C17.2115,15.652 17.0551,15.7642 16.8576,15.8347 L12.5827,17.2654 C12.3916,17.3257 12.1974,17.3568 12,17.3587748 C11.8025,17.3606 11.6083,17.3263 11.4173,17.2558 Z M11.25,15.627 L11.25,3.927 L6.74995,2.35392 L6.74995,14.0539 L11.25,15.627 Z"/>
</svg>
