<svg xmlns="http://www.w3.org/2000/svg" width="20" height="18" viewBox="0 0 20 18">
  <path fill="#00263E" d="M15.5,4.42321 L4.50007,4.42321 L4.50007,1.70959 C4.50007,1.4533 4.5867,1.23894 4.75995,1.06651 C4.93318,0.89408 5.14784,0.80786 5.40392,0.80786 L14.5922,0.80786 C14.8525,0.80786 15.0689,0.89448 15.2413,1.06771 C15.4138,1.24094 15.5,1.45561 15.5,1.71171 L15.5,4.42321 Z M15.8077,9.3078 C16.0911,9.3078 16.3286,9.212 16.5202,9.0203 C16.7119,8.8286 16.8077,8.5911 16.8077,8.3078 C16.8077,8.0245 16.7119,7.787 16.5202,7.5953 C16.3286,7.4036 16.0911,7.3078 15.8077,7.3078 C15.5244,7.3078 15.2869,7.4036 15.0952,7.5953 C14.9036,7.787 14.8077,8.0245 14.8077,8.3078 C14.8077,8.5911 14.9036,8.8286 15.0952,9.0203 C15.2869,9.212 15.5244,9.3078 15.8077,9.3078 Z M6.30777,16.0001 L13.6923,16.0001 C13.7821,16.0001 13.8558,15.9713 13.9135,15.9136 C13.9712,15.8559 14,15.7821 14,15.6924 L14,11.7309 L6.00005,11.7309 L6.00005,15.6924 C6.00005,15.7821 6.0289,15.8559 6.0866,15.9136 C6.1443,15.9713 6.21802,16.0001 6.30777,16.0001 Z M6.30777,17.5001 C5.81066,17.5001 5.3851,17.3231 5.0311,16.9691 C4.67708,16.6151 4.50007,16.1895 4.50007,15.6924 L4.50007,13.5001 L1.6924,13.5001 C1.43632,13.5001 1.22166,13.4135 1.04842,13.2402 C0.87519,13.067 0.78857,12.8523 0.78857,12.5962 L0.78857,7.8078 C0.78857,7.0995 1.03056,6.50573 1.51452,6.02656 C1.99849,5.54741 2.58982,5.30784 3.28852,5.30784 L16.7116,5.30784 C17.4199,5.30784 18.0136,5.54741 18.4928,6.02656 C18.972,6.50573 19.2115,7.0995 19.2115,7.8078 L19.2115,12.5962 C19.2115,12.8523 19.1249,13.067 18.9517,13.2402 C18.7784,13.4135 18.5638,13.5001 18.3077,13.5001 L15.5,13.5001 L15.5,15.6924 C15.5,16.1895 15.323,16.6151 14.969,16.9691 C14.615,17.3231 14.1894,17.5001 13.6923,17.5001 L6.30777,17.5001 Z"/>
</svg>
