<svg xmlns="http://www.w3.org/2000/svg" width="16" height="16" viewBox="0 0 16 16">
  <path fill="#00263E" d="M14.7819,15.7941 L9.3338,10.341 C8.8603,10.7323 8.3159,11.0384 7.7005,11.2596 C7.085,11.4807 6.4483,11.5913 5.79036,11.5913 C4.17202,11.5913 2.80238,11.0304 1.68143,9.9087 C0.56048,8.7871 0,7.4165 0,5.79713 C0,4.17773 0.56033,2.80669 1.681,1.684 C2.80167,0.56133 4.17096,0 5.78889,0 C7.4068,0 8.7766,0.56099 9.8982,1.68296 C11.0199,2.80493 11.5807,4.17583 11.5807,5.79564 C11.5807,6.4724 11.4672,7.1188 11.2402,7.7348 C11.0132,8.3508 10.7103,8.8867 10.3316,9.3423 L15.8034,14.819 C15.9345,14.9477 16,15.1056 16,15.2928 C16,15.48 15.9259,15.6477 15.7777,15.7961 C15.6418,15.932 15.4762,16 15.2808,16 C15.0853,16 14.919,15.9314 14.7819,15.7941 Z M5.79036,10.1697 C7.0103,10.1697 8.0437,9.746 8.8904,8.8985 C9.7371,8.051 10.1605,7.0167 10.1605,5.79564 C10.1605,4.57453 9.7371,3.54024 8.8904,2.69276 C8.0437,1.84527 7.0103,1.42153 5.79036,1.42153 C4.57036,1.42153 3.53701,1.84527 2.6903,2.69276 C1.84361,3.54024 1.42026,4.57453 1.42026,5.79564 C1.42026,7.0167 1.84361,8.051 2.6903,8.8985 C3.53701,9.746 4.57036,10.1697 5.79036,10.1697 Z"/>
</svg>
