<svg width="25" height="17" viewBox="0 0 25 17" fill="none" xmlns="http://www.w3.org/2000/svg">
  <path fill-rule="evenodd" clip-rule="evenodd" d="M21.8763 0.507761C22.9096 0.78763 23.7216 1.60925 23.9982 2.65475C24.498 4.54786 24.5 8.5 24.5 8.5C24.5 8.5 24.5 12.4522 23.9982 14.3453C23.7216 15.3908 22.9096 16.2124 21.8763 16.4922C20.0055 17 12.5 17 12.5 17C12.5 17 4.99456 17 3.12364 16.4922C2.09039 16.2124 1.2784 15.3908 1.00181 14.3453C0.5 12.4522 0.5 8.5 0.5 8.5C0.5 8.5 0.5 4.54786 1.00181 2.65475C1.2784 1.60925 2.09039 0.78763 3.12364 0.507761C4.99456 0 12.5 0 12.5 0C12.5 0 20.0055 0 21.8763 0.507761ZM16.3328 8.50034L10.0977 12.1426V4.85803L16.3328 8.50034Z" fill="white"/>
</svg>
