<svg>
  <defs>
    <!-- 2: wrap in `<symbol>` and give it an ID (and other attributes such as `viewBox`) -->
    <symbol id="arrow-right">
      <svg xmlns="http://www.w3.org/2000/svg" width="20" height="14" viewBox="0 0 20 14">
        <path fill='var(--deep-navy)'
          d="M12.2135,13.1557 C12.0686,13.0172 11.9946,12.8432 11.9914,12.6336 C11.9882,12.424 12.059,12.2467 12.2039,12.1019 L16.5558,7.7499 L1.14429,7.7499 C0.93147,7.7499 0.75327,7.6781 0.60969,7.5345 C0.46609,7.3909 0.39429,7.2127 0.39429,6.9999 C0.39429,6.7871 0.46609,6.6089 0.60969,6.4653 C0.75327,6.3217 0.93147,6.25 1.14429,6.25 L16.5558,6.25 L12.2039,1.89798 C12.0654,1.75953 11.9946,1.58389 11.9914,1.37108 C11.9882,1.15826 12.059,0.98263 12.2039,0.84418 C12.3423,0.70571 12.518,0.63647 12.7308,0.63647 C12.9436,0.63647 13.1192,0.70571 13.2577,0.84418 L18.7808,6.3672 C18.8744,6.4608 18.9388,6.5596 18.974,6.6634 C19.0093,6.7672 19.0269,6.8794 19.0269,6.9999 C19.0269,7.1204 19.0093,7.2342 18.974,7.3413 C18.9388,7.4483 18.8744,7.5486 18.7808,7.6422 L13.2577,13.1557 C13.1192,13.2941 12.9468,13.3634 12.7404,13.3634 C12.534,13.3634 12.3584,13.2941 12.2135,13.1557 Z" />
      </svg>
    </symbol>

    <symbol id="arrow-left">
      <svg xmlns="http://www.w3.org/2000/svg" width="20" height="14" viewBox="0 0 20 14">
        <path fill='var(--deep-navy)'
          d="M12.2135,13.1557 C12.0686,13.0172 11.9946,12.8432 11.9914,12.6336 C11.9882,12.424 12.059,12.2467 12.2039,12.1019 L16.5558,7.7499 L1.14429,7.7499 C0.93147,7.7499 0.75327,7.6781 0.60969,7.5345 C0.46609,7.3909 0.39429,7.2127 0.39429,6.9999 C0.39429,6.7871 0.46609,6.6089 0.60969,6.4653 C0.75327,6.3217 0.93147,6.25 1.14429,6.25 L16.5558,6.25 L12.2039,1.89798 C12.0654,1.75953 11.9946,1.58389 11.9914,1.37108 C11.9882,1.15826 12.059,0.98263 12.2039,0.84418 C12.3423,0.70571 12.518,0.63647 12.7308,0.63647 C12.9436,0.63647 13.1192,0.70571 13.2577,0.84418 L18.7808,6.3672 C18.8744,6.4608 18.9388,6.5596 18.974,6.6634 C19.0093,6.7672 19.0269,6.8794 19.0269,6.9999 C19.0269,7.1204 19.0093,7.2342 18.974,7.3413 C18.9388,7.4483 18.8744,7.5486 18.7808,7.6422 L13.2577,13.1557 C13.1192,13.2941 12.9468,13.3634 12.7404,13.3634 C12.534,13.3634 12.3584,13.2941 12.2135,13.1557 Z" />
      </svg>
    </symbol>
  </defs>
</svg>
